<?xml version="1.0" standalone="no"?>
<!DOCTYPE svg PUBLIC "-//W3C//DTD SVG 20010904//EN"
 "http://www.w3.org/TR/2001/REC-SVG-20010904/DTD/svg10.dtd">
<svg version="1.0" xmlns="http://www.w3.org/2000/svg"
 width="128pt" height="128pt" viewBox="0 0 128 128" fill="#ea2845"
 preserveAspectRatio="xMidYMid meet">
<metadata>
Creator: ImBatch
</metadata>
<g transform="translate(0,128) scale(0.1,-0.1)"
fill="#0" stroke="none">
<path d="M842 1110 l-31 -29 -198 -2 c-109 -2 -201 -4 -205 -6 -6 -3 6 -41 18 -61
3 -5 173 26 184 33 6 4 10 -15 10 -48 l0 -54 -92 -7 c-158 -11 -165 -10 -199 27
-17 18 -28 24 -25 15 6 -20 -6 -63 -39 -133 -40 -86 -41 -95 -6 -95 38 0 88 49
97 95 7 37 -1 35 187 50 32 3 63 7 68 10 5 4 9 -46 9 -120 0 -109 3 -130 19 -151
18 -23 19 -24 41 -6 27 22 37 77 36 194 l-1 83 85 -1 c47 -1 107 -2 133 -3 l48
-1 -7 -35 -6 -35 64 0 c102 0 117 40 44 118 l-45 47 -23 -21 c-20 -19 -39 -22 -160
-28 -76 -3 -138 -3 -138 1 0 4 8 15 17 26 19 21 22 16 -34 55 -15 11 0 12 87 7
58 -3 114 -7 125 -10 13 -4 24 1 33 15 11 19 9 26 -18 61 -18 21 -35 39 -39 39
-5 0 -22 -13 -39 -30z m-137 -182 c5 -4 0 -6 -12 -6 -13 1 -19 7 -16 15 3 8 8 10
12 6 3 -4 10 -11 16 -15z m-325 -28 c0 -5 -4 -10 -10 -10 -5 0 -10 5 -10 10 0 6
5 10 10 10 6 0 10 -4 10 -10z M885 849 c-11 -11 -30 -19 -45 -18 -14 0 -39 1 -57
0 -27 -1 -30 -4 -26 -22 5 -19 11 -21 57 -15 28 3 70 6 92 6 49 0 63 20 37 50 -22
25 -35 25 -58 -1z M538 830 c-1 -5 -38 -10 -80 -12 -76 -3 -97 -15 -65 -35 16 -10
189 -4 201 8 6 5 2 16 -9 29 -19 21 -41 26 -47 10z M910 746 c-19 -22 -33 -26 -96
-28 -72 -3 -73 -3 -56 -23 15 -18 27 -20 115 -17 81 3 99 6 107 21 7 14 3 24 -19
45 l-27 26 -24 -24z M537 733 c-14 -14 -34 -18 -87 -18 -39 0 -70 -3 -70 -7 0 -5
0 -15 0 -24 0 -13 10 -14 63 -8 34 3 75 6 91 5 63 -3 84 20 48 52 -23 21 -24 21
-45 0z M766 645 c-15 -11 -17 -19 -9 -42 5 -15 7 -38 5 -50 -3 -21 -9 -23 -58 -23
-57 0 -58 -1 -47 -39 5 -20 10 -22 39 -18 19 3 34 3 34 0 0 -22 -95 -151 -162 -221
-28 -28 -47 -52 -42 -52 17 0 140 98 188 150 l49 52 -6 -128 c-4 -97 -2 -133 7
-147 7 -9 15 -17 18 -17 3 0 18 18 34 41 28 41 28 41 26 191 -1 83 1 148 5 144
4 -3 17 -38 29 -77 27 -84 53 -125 106 -163 l39 -28 38 26 c20 14 49 26 63 26 32
0 46 18 21 27 -46 16 -123 54 -168 82 -49 31 -109 97 -100 111 2 4 32 3 65 -2 34
-5 68 -7 76 -4 21 8 16 37 -11 71 l-24 29 -29 -27 c-21 -21 -38 -27 -70 -27 -44
0 -56 16 -28 39 17 14 26 45 17 58 -9 15 -47 33 -68 33 -10 0 -26 -7 -37 -15z M427
624 c-25 -14 -26 -16 -12 -37 8 -12 12 -32 8 -45 -4 -18 -12 -22 -43 -22 -20 0
-65 -3 -98 -6 l-61 -7 16 -28 c20 -33 24 -34 62 -14 37 19 111 31 111 18 0 -17
-95 -136 -151 -189 -30 -28 -73 -59 -96 -69 -24 -10 -43 -22 -43 -26 0 -13 115
32 130 50 3 4 19 15 35 25 17 11 51 37 76 58 25 21 49 38 54 38 4 0 6 -51 3 -114
-3 -63 -2 -120 3 -128 13 -20 41 1 65 51 18 38 20 56 16 182 l-3 141 67 -4 c61
-3 69 -1 72 16 2 11 -7 28 -21 42 l-25 23 -23 -25 c-25 -26 -69 -33 -69 -10 0 8
5 18 10 21 20 12 11 52 -15 63 -32 15 -34 15 -68 -4z M528 435 c-7 -7 24 -125 33
-125 18 0 46 55 39 75 -8 20 -63 59 -72 50z"/>
</g>
</svg>
